<?xml version="1.0" standalone="no"?>
<!DOCTYPE svg PUBLIC "-//W3C//DTD SVG 20010904//EN"
 "http://www.w3.org/TR/2001/REC-SVG-20010904/DTD/svg10.dtd">
<svg version="1.0" xmlns="http://www.w3.org/2000/svg"
 width="196.000000pt" height="196.000000pt" viewBox="0 0 196.000000 196.000000"
 preserveAspectRatio="xMidYMid meet">

<g transform="translate(0.000000,196.000000) scale(0.100000,-0.100000)"
fill="#000000" stroke="none">
<path d="M813 1946 c-210 -40 -376 -127 -524 -275 -128 -129 -215 -280 -260
-456 -34 -129 -34 -341 0 -470 45 -176 132 -327 260 -456 129 -128 280 -215
456 -260 74 -19 116 -24 235 -24 119 0 161 5 235 24 176 45 327 132 456 260
128 129 215 280 260 456 34 129 34 341 0 470 -45 176 -132 327 -260 456 -128
127 -280 215 -451 259 -109 28 -305 35 -407 16z m367 -291 c200 -51 391 -204
479 -382 55 -111 73 -180 78 -308 6 -151 -10 -235 -71 -359 -55 -111 -115
-189 -198 -255 -146 -117 -286 -165 -473 -165 -150 0 -249 26 -365 93 -150 87
-237 181 -311 334 -55 116 -72 204 -66 352 6 168 52 295 153 426 102 133 329
274 329 204 0 -17 -7 -20 -51 -21 -68 -2 -93 -16 -87 -49 4 -16 1 -25 -7 -25
-7 0 -10 8 -7 20 10 38 -8 20 -36 -36 -27 -55 -28 -86 -2 -64 10 8 14 7 18 -2
3 -8 6 -5 6 7 1 15 4 16 13 7 19 -19 28 -14 29 16 0 27 0 27 10 3 9 -22 10
-22 34 -7 28 19 49 21 39 4 -5 -7 -2 -9 8 -5 22 8 30 -3 15 -21 -10 -13 -9
-15 7 -9 16 6 17 5 6 -8 -7 -8 -18 -15 -25 -15 -14 0 -41 -57 -31 -67 3 -3 6
-1 6 5 0 27 19 9 23 -20 3 -28 4 -26 6 12 l3 45 14 -34 c19 -43 30 -33 14 14
-16 48 -5 57 13 12 20 -45 34 -53 59 -30 21 18 21 18 14 -22 -4 -26 -3 -35 3
-26 14 21 42 6 33 -18 -4 -11 -6 -78 -4 -150 3 -105 6 -131 17 -131 8 0 17
-12 21 -27 25 -113 26 -103 5 205 -5 68 -6 133 -3 144 4 19 6 18 29 -9 l24
-28 -16 32 c-19 40 -19 54 0 29 8 -11 17 -17 20 -14 3 3 -10 26 -30 52 -41 53
-35 60 12 14 31 -30 49 -28 21 1 -11 11 -10 13 2 9 8 -3 23 1 32 9 15 14 18
13 24 -12 5 -20 11 -25 26 -22 16 5 19 2 15 -14 -5 -17 -3 -18 10 -7 14 11 16
10 9 -15 -4 -19 -3 -26 4 -22 5 3 10 -1 10 -10 0 -11 5 -15 14 -12 7 3 19 0
25 -6 29 -29 7 25 -46 117 -7 11 -13 32 -13 46 l0 25 25 -30 c14 -16 22 -22
19 -12 -3 9 -3 17 1 17 4 0 14 -8 21 -17 12 -17 13 -16 14 5 0 24 15 30 23 10
8 -25 46 35 40 62 -9 36 -52 89 -87 107 -17 9 -35 22 -39 29 -4 8 -21 14 -36
14 -16 0 -42 7 -57 16 -28 15 -27 16 46 11 41 -3 104 -13 140 -22z m-280 7 c0
-29 -50 -42 -69 -18 -10 11 -8 15 6 19 31 8 63 7 63 -1z m200 -112 c0 -5 -5
-10 -11 -10 -5 0 -7 5 -4 10 3 6 8 10 11 10 2 0 4 -4 4 -10z m-467 -15 c4 -8
2 -17 -3 -20 -6 -4 -10 3 -10 14 0 25 6 27 13 6z m337 -125 c0 -5 -2 -10 -4
-10 -3 0 -8 5 -11 10 -3 6 -1 10 4 10 6 0 11 -4 11 -10z"/>
<path d="M948 1243 c12 -2 32 -2 45 0 12 2 2 4 -23 4 -25 0 -35 -2 -22 -4z"/>
<path d="M1058 1233 c7 -3 16 -2 19 1 4 3 -2 6 -13 5 -11 0 -14 -3 -6 -6z"/>
<path d="M1210 1181 c19 -16 21 -21 9 -21 -9 0 -22 7 -29 15 -14 17 -35 21
-25 5 3 -5 0 -10 -7 -10 -19 0 -50 -39 -44 -56 4 -11 -6 -14 -47 -15 -32 0
-45 -3 -34 -8 17 -6 17 -8 3 -20 -15 -12 -14 -15 4 -31 11 -10 20 -22 20 -28
0 -11 60 -32 93 -32 18 0 19 -8 21 -157 1 -92 22 -103 32 -17 4 38 7 86 6 108
-2 34 0 38 18 33 15 -4 20 0 20 14 0 16 8 19 43 20 23 1 47 1 54 0 16 -2 26
16 13 24 -17 10 -12 48 5 41 13 -5 13 -2 -1 20 -9 13 -24 29 -33 34 -14 8 -14
11 -1 20 12 8 12 10 -5 10 -12 0 -27 -6 -34 -12 -11 -11 -14 -10 -18 0 -3 6
-10 9 -15 6 -7 -5 -8 -2 -4 5 5 7 15 10 23 6 13 -4 14 -3 3 10 -10 12 -16 13
-27 4 -10 -9 -12 -9 -8 2 3 9 -7 21 -27 33 l-33 18 25 -21z"/>
<path d="M629 1123 c-13 -16 -12 -17 4 -4 9 7 17 15 17 17 0 8 -8 3 -21 -13z"/>
<path d="M515 999 c-4 -6 -5 -12 -2 -15 2 -3 7 2 10 11 7 17 1 20 -8 4z"/>
<path d="M1575 933 c3 -40 6 -47 22 -44 10 2 37 3 61 2 24 -1 51 3 60 9 13 7
10 8 -13 5 -16 -3 -43 -1 -60 4 l-30 10 35 0 c51 -1 60 0 60 9 0 4 -15 6 -34
4 -20 -2 -43 2 -56 11 -19 13 -16 14 32 11 50 -3 51 -3 13 5 -22 4 -52 11 -67
15 -27 8 -27 8 -23 -41z"/>
<path d="M372 918 c-21 -21 -13 -29 13 -12 13 8 29 13 34 10 5 -4 12 -2 16 4
9 14 -48 13 -63 -2z"/>
<path d="M1002 910 c0 -14 2 -19 5 -12 2 6 2 18 0 25 -3 6 -5 1 -5 -13z"/>
<path d="M858 767 c4 -134 3 -147 -12 -141 -9 3 -16 10 -16 15 0 5 -5 9 -11 9
-5 0 -8 -4 -5 -8 2 -4 1 -14 -5 -22 -7 -12 -9 -9 -10 10 0 14 -3 19 -6 12 -2
-6 -8 -10 -13 -7 -4 3 -11 -7 -14 -21 -5 -19 -11 -24 -25 -19 -25 8 -38 -12
-45 -65 -7 -53 12 -113 36 -118 20 -4 40 30 32 52 -8 21 -31 20 -37 -1 -4 -14
-5 -13 -6 4 -1 26 12 36 38 28 27 -8 35 -56 17 -99 -13 -30 -20 -36 -45 -36
-52 0 -66 35 -67 165 0 109 -1 110 -23 107 -13 -2 -21 1 -17 6 6 10 -55 8 -73
-3 -17 -10 -19 -6 -23 47 -6 74 -18 69 -18 -6 l0 -68 -30 4 c-17 3 -30 1 -30
-3 0 -25 65 -159 99 -204 103 -137 244 -205 422 -205 107 0 192 24 275 79 139
91 211 205 238 377 11 72 14 79 34 77 14 -2 22 3 22 12 0 10 -11 15 -35 15
-31 0 -35 -3 -35 -25 0 -21 -5 -25 -29 -25 -16 0 -32 -6 -34 -12 -3 -7 -7 10
-8 37 -2 43 -3 45 -6 14 -3 -26 -10 -38 -23 -42 -23 -6 -30 0 -30 27 0 12 -9
48 -19 81 l-19 60 -1 -40 c0 -22 6 -51 14 -65 29 -51 10 -147 -25 -125 -5 3
-10 1 -10 -4 0 -6 -7 -11 -16 -11 -9 0 -12 5 -8 12 4 7 3 8 -5 4 -6 -4 -9 -12
-6 -17 4 -5 1 -9 -4 -9 -6 0 -11 5 -11 11 0 8 -12 10 -35 6 -40 -7 -49 12 -13
28 13 6 24 18 26 28 3 14 -4 17 -32 17 -28 0 -36 4 -36 18 0 48 -56 57 -71 12
-9 -24 -17 -30 -40 -30 -22 0 -29 -5 -29 -19 0 -20 18 -31 51 -31 12 0 21 9
25 28 4 15 9 30 11 34 6 12 32 -3 38 -22 6 -20 -23 -90 -38 -90 -5 0 -4 6 2
14 9 11 9 16 0 22 -7 4 -9 3 -6 -3 4 -6 0 -14 -9 -17 -8 -3 -13 -2 -10 3 7 11
-14 20 -32 14 -10 -4 -10 -8 0 -21 11 -13 10 -14 -8 -4 -12 6 -38 12 -58 14
-41 2 -45 10 -16 29 16 11 24 35 35 104 24 144 14 146 -15 3 -11 -54 -13 -58
-40 -58 -32 0 -33 3 -50 98 -21 120 -28 107 -22 -41z m582 -106 c27 -1 31 -4
20 -11 -12 -8 -12 -10 -1 -10 8 0 12 -2 9 -5 -3 -3 -18 0 -33 7 -23 10 -29 10
-33 0 -4 -13 -82 -17 -82 -4 0 17 20 27 52 26 18 -1 49 -2 68 -3z m-561 -77
c29 -36 29 -116 1 -144 -11 -11 -24 -20 -30 -20 -21 0 -50 41 -51 73 -2 57 3
82 18 100 22 24 38 21 62 -9z m201 2 c0 -7 -9 -16 -20 -19 -11 -3 -20 -10 -20
-16 0 -6 9 -11 20 -11 11 0 20 -7 20 -15 0 -8 -9 -15 -19 -15 -16 0 -20 -8
-23 -42 -5 -68 -23 -50 -26 27 -2 39 -7 74 -13 80 -6 5 -9 5 -9 -3 0 -7 -9
-12 -20 -12 -11 0 -20 -4 -20 -10 0 -5 9 -10 20 -10 11 0 20 -6 20 -14 0 -7
-9 -16 -20 -19 -16 -4 -20 -14 -20 -46 0 -30 -4 -41 -15 -41 -12 0 -15 17 -15
90 l0 90 80 0 c61 0 80 -3 80 -14z m97 -3 c3 -7 -7 -15 -21 -19 -31 -7 -35
-24 -6 -24 12 0 20 -7 20 -16 0 -9 -9 -18 -20 -21 -26 -7 -27 -43 -2 -43 24 0
32 -8 25 -26 -3 -8 -19 -14 -39 -14 l-34 0 0 91 0 90 37 -3 c20 -2 38 -8 40
-15z m91 0 c-2 -10 -13 -19 -26 -21 -29 -4 -29 -20 1 -24 12 -2 22 -10 22 -18
0 -8 -10 -16 -22 -18 -31 -5 -31 -39 -1 -44 13 -2 24 -11 26 -21 3 -16 -2 -18
-35 -15 l-38 3 -3 88 -3 87 41 0 c34 0 41 -3 38 -17z"/>
<path d="M834 557 c-11 -29 0 -92 16 -92 11 0 15 12 15 49 0 49 -19 74 -31 43z"/>
<path d="M436 885 c-3 -8 -1 -15 4 -15 6 0 10 7 10 15 0 8 -2 15 -4 15 -2 0
-6 -7 -10 -15z"/>
<path d="M738 855 c-3 -24 0 -35 9 -35 8 0 13 12 13 29 0 43 -17 47 -22 6z"/>
<path d="M1097 883 c-14 -13 -7 -63 8 -63 11 0 13 8 8 33 -7 38 -8 39 -16 30z"/>
<path d="M1502 870 c0 -14 2 -19 5 -12 2 6 2 18 0 25 -3 6 -5 1 -5 -13z"/>
<path d="M533 828 c-14 -15 -23 -36 -22 -54 0 -16 3 -22 6 -14 3 8 14 22 25
31 12 9 19 24 16 38 l-3 23 -22 -24z"/>
<path d="M340 810 c0 -16 52 -50 76 -50 22 0 24 -4 24 -47 0 -61 6 -52 14 21
l6 58 -26 -6 c-17 -5 -37 0 -60 13 -19 11 -34 16 -34 11z"/>
<path d="M622 741 c-2 -33 -2 -34 -42 -28 -22 3 -40 4 -40 2 0 -2 4 -15 10
-29 7 -20 16 -26 40 -26 36 0 43 13 37 71 -3 37 -4 38 -5 10z"/>
<path d="M721 757 c-6 -6 -11 -19 -11 -29 0 -13 -8 -18 -29 -18 -33 0 -43 -16
-29 -44 8 -15 12 -16 19 -5 5 9 9 10 9 2 0 -6 9 -9 20 -6 17 5 25 21 21 45 0
4 8 12 19 18 21 11 21 10 36 -37 2 -7 -5 -17 -14 -23 -16 -11 -15 -11 1 -6 10
3 34 6 53 6 30 0 34 3 34 25 0 21 -5 25 -29 25 -23 0 -31 6 -39 28 -10 29 -41
39 -61 19z"/>
<path d="M1241 728 c-2 -53 7 -68 40 -68 16 0 29 4 29 9 0 5 3 16 6 25 5 13
-1 16 -29 16 -31 0 -36 3 -40 28 -3 22 -4 21 -6 -10z"/>
<path d="M1550 696 c0 -10 9 -16 21 -16 24 0 21 23 -4 28 -10 2 -17 -3 -17
-12z"/>
</g>
</svg>
