<?xml version="1.0" standalone="no"?>
<!DOCTYPE svg PUBLIC "-//W3C//DTD SVG 20010904//EN"
 "http://www.w3.org/TR/2001/REC-SVG-20010904/DTD/svg10.dtd">
<svg version="1.0" xmlns="http://www.w3.org/2000/svg"
 width="1030.000000pt" height="1030.000000pt" viewBox="0 0 1030.000000 1030.000000"
 preserveAspectRatio="xMidYMid meet">

<g transform="translate(0.000000,1030.000000) scale(0.100000,-0.100000)"
fill="#000000" stroke="none">
<path d="M4910 10294 c-444 -22 -954 -115 -1350 -247 l-155 -52 3 -66 c3 -58
0 -77 -31 -147 -19 -45 -55 -107 -80 -140 -41 -53 -53 -79 -88 -202 -17 -59
-72 -161 -111 -205 -52 -59 -241 -155 -306 -155 -48 0 -85 17 -110 52 -7 10
-19 18 -25 18 -7 1 -24 18 -39 40 -20 29 -38 42 -70 50 -85 23 -85 23 -112
114 -39 127 -58 132 -184 50 -232 -151 -507 -379 -744 -616 -132 -133 -328
-352 -328 -369 0 -4 28 -21 62 -37 35 -16 72 -39 82 -51 11 -11 29 -21 40 -21
12 0 39 -10 61 -23 35 -20 41 -29 57 -87 19 -72 22 -118 9 -139 -16 -25 -122
-54 -175 -46 -47 6 -48 5 -42 -17 3 -13 6 -28 6 -35 0 -6 10 -24 23 -40 36
-43 39 -61 17 -83 -43 -43 -100 -15 -100 48 0 50 -7 58 -81 93 -78 37 -99 55
-99 85 0 12 -15 39 -34 59 l-34 36 -80 -118 c-232 -344 -389 -640 -537 -1018
-306 -780 -417 -1635 -319 -2470 93 -804 371 -1566 819 -2245 319 -483 755
-944 1220 -1290 154 -114 421 -288 429 -279 22 30 46 82 46 100 0 16 -31 61
-85 127 -47 57 -85 112 -85 123 0 39 19 59 56 59 41 0 59 -8 123 -57 25 -20
64 -44 86 -53 93 -41 119 -100 114 -257 -3 -82 -9 -116 -22 -136 -9 -14 -17
-28 -17 -31 0 -9 126 -75 260 -137 194 -88 401 -169 584 -228 142 -46 379
-111 405 -111 6 0 5 11 -2 29 -10 27 -8 32 34 74 51 51 99 64 121 35 11 -14
110 -48 140 -48 4 0 8 16 8 34 l0 35 37 -34 c36 -33 36 -33 21 -67 -9 -18 -18
-42 -21 -53 -4 -19 -5 -19 -6 1 -1 17 -6 20 -27 16 -17 -3 -25 -1 -21 5 8 12
-39 27 -54 17 -20 -12 -116 7 -137 27 -12 10 -24 19 -27 19 -3 0 -5 -23 -5
-50 0 -46 3 -51 27 -61 34 -13 123 -16 181 -6 39 7 43 5 53 -17 13 -27 25 -30
163 -45 53 -6 87 -6 103 2 17 7 29 7 46 -1 12 -6 34 -16 50 -22 25 -9 27 -8
27 19 0 20 -7 31 -25 39 -25 12 -34 32 -14 32 6 0 20 -5 32 -11 16 -9 22 -9
25 0 7 22 33 11 48 -21 12 -27 14 -28 10 -8 -2 14 -8 35 -11 48 -12 37 23 27
42 -12 12 -27 13 -40 5 -65 -8 -23 -8 -32 1 -38 21 -13 653 -8 792 6 622 61
1134 193 1661 427 933 414 1749 1127 2282 1994 432 703 674 1436 754 2285 15
168 15 705 -1 860 -58 570 -158 992 -352 1480 -94 237 -265 585 -295 600 -11
6 -19 16 -16 23 8 26 -193 346 -341 541 -390 516 -836 929 -1362 1263 -290
184 -556 320 -875 448 -429 171 -897 283 -1403 335 -144 15 -579 26 -727 19z
m415 -566 c15 -12 34 -36 41 -54 16 -39 18 -131 4 -170 -8 -21 -7 -32 6 -53
23 -35 22 -98 -4 -146 -11 -22 -46 -68 -76 -103 -47 -53 -56 -70 -56 -101 0
-20 6 -43 13 -50 10 -10 9 -11 -5 -6 -20 8 -32 54 -23 94 3 16 30 57 60 91 77
89 100 149 79 204 -10 27 -29 18 -86 -41 -65 -69 -77 -90 -88 -152 l-8 -46 -1
47 c-1 64 9 86 74 158 30 35 53 65 50 68 -3 3 -11 0 -17 -6 -15 -15 -31 -16
-22 -1 3 6 21 17 40 25 26 11 36 23 44 55 15 54 3 124 -27 160 -30 35 -49 36
-80 7 -13 -12 -23 -17 -23 -10 0 13 48 52 65 52 7 0 25 -10 40 -22z m-1662
-698 c9 0 19 5 22 10 14 23 66 10 98 -24 42 -44 54 -47 130 -34 59 10 69 9
110 -11 35 -17 46 -28 51 -52 6 -31 -11 -75 -36 -96 -26 -22 -157 -83 -177
-83 -12 0 -28 -12 -38 -27 -9 -16 -36 -53 -59 -83 -66 -86 -111 -151 -139
-203 -17 -32 -41 -58 -73 -77 -26 -16 -50 -33 -54 -37 -4 -4 -22 -25 -39 -46
-36 -42 -100 -80 -122 -71 -8 3 -17 18 -20 33 -3 15 -14 38 -25 51 -18 22 -20
22 -73 10 -30 -8 -61 -20 -70 -27 -8 -7 -23 -13 -32 -13 -9 0 -19 -4 -22 -10
-3 -5 -16 -10 -28 -10 -12 0 -35 -7 -51 -15 -53 -28 -71 -20 -106 43 -18 32
-34 78 -37 107 -6 53 1 65 51 90 11 6 21 20 21 32 0 12 3 25 8 29 4 4 7 33 7
65 0 51 3 60 26 76 14 10 34 26 45 36 10 9 28 17 38 17 27 0 71 40 76 70 3 14
16 33 30 43 14 10 25 25 25 33 0 21 41 74 57 74 7 0 32 12 56 27 35 23 55 28
127 31 79 4 88 6 129 38 40 31 46 33 61 19 9 -8 24 -15 33 -15z m1933 4 c81
-17 108 -32 99 -56 -7 -16 -53 -31 -139 -44 -35 -5 -47 -4 -42 5 5 8 -62 11
-256 10 -306 -1 -315 -16 -18 -27 l185 -8 -100 -8 c-172 -15 -449 13 -522 53
-26 13 -29 33 -9 50 23 19 146 41 226 40 l75 -2 -65 -8 c-82 -10 -199 -39
-205 -50 -7 -10 68 -32 110 -32 17 -1 74 4 127 11 123 15 277 15 393 0 50 -6
106 -11 125 -11 46 1 96 21 84 33 -14 14 -144 39 -242 47 -53 4 -79 9 -67 13
28 10 156 2 241 -16z m242 -100 c33 -23 52 -68 51 -121 l-1 -48 -13 50 c-21
88 -45 115 -100 115 -28 0 -66 -16 -77 -34 -4 -6 -8 -26 -8 -44 0 -32 1 -33
22 -18 12 9 34 16 48 16 44 0 70 -26 69 -68 -1 -20 -5 -48 -9 -62 -6 -20 -8
-15 -9 24 -2 78 -38 104 -100 72 -25 -14 -28 -21 -40 -118 -26 -208 -26 -192
3 -206 28 -13 28 -13 112 158 12 25 23 40 23 34 1 -17 -39 -145 -56 -177 -26
-50 -6 -41 31 15 20 29 49 92 66 138 16 47 30 78 30 69 0 -39 -43 -176 -73
-234 -39 -74 -34 -90 31 -101 23 -4 47 -13 53 -20 6 -8 26 -14 44 -14 18 0 37
-6 43 -12 43 -53 63 -313 29 -375 -10 -18 -22 -33 -28 -33 -19 0 -31 57 -30
150 0 52 -4 101 -8 109 -8 12 -28 8 -123 -19 -163 -46 -340 -70 -568 -75
l-195 -4 180 14 c262 20 552 71 653 115 46 21 49 25 27 46 -23 24 -72 34 -158
34 -50 0 -76 4 -72 10 3 6 19 10 34 10 16 0 43 3 60 6 l32 7 -43 24 -42 24
-48 -22 c-38 -18 -50 -20 -62 -10 -12 10 -17 7 -29 -16 -8 -15 -28 -39 -44
-53 l-28 -25 21 25 c51 59 72 146 50 206 -6 16 -3 22 12 26 16 5 23 25 40 119
12 63 27 153 33 201 7 48 16 85 20 82 5 -3 19 2 31 10 29 20 87 20 116 0z
m-1013 -4 c-3 -5 -10 -10 -16 -10 -5 0 -9 5 -9 10 0 6 7 10 16 10 8 0 12 -4 9
-10z m668 -7 c-7 -2 -21 -2 -30 0 -10 3 -4 5 12 5 17 0 24 -2 18 -5z m-643
-28 c-29 -17 -50 -19 -50 -6 0 5 10 12 23 14 44 8 52 6 27 -8z m70 -9 c0 -3
-24 -12 -52 -22 -29 -9 -59 -19 -65 -22 -7 -2 -13 0 -13 6 0 5 24 16 53 25 54
16 77 20 77 13z m5 -47 c-11 -5 -41 -18 -67 -28 -27 -11 -48 -25 -48 -32 0 -6
7 -8 15 -5 46 17 127 37 132 32 4 -3 2 -6 -4 -6 -24 0 -144 -60 -138 -69 3 -6
33 0 72 15 94 35 101 24 9 -15 -91 -40 -102 -60 -13 -26 102 39 106 38 23 -5
-43 -23 -76 -44 -73 -47 3 -3 36 5 72 17 36 12 68 20 71 18 2 -3 -31 -20 -73
-38 -90 -40 -83 -50 13 -20 37 11 68 19 70 17 2 -2 -29 -17 -68 -34 -40 -17
-74 -36 -76 -42 -2 -6 16 -2 41 8 52 23 117 42 117 35 0 -3 -34 -21 -75 -39
-95 -44 -99 -64 -4 -24 39 17 73 28 76 25 3 -3 -29 -22 -71 -43 -69 -34 -93
-53 -65 -53 5 0 42 14 81 30 104 44 105 36 3 -18 -104 -54 -93 -67 20 -22 43
17 79 29 81 27 2 -2 -37 -23 -86 -47 -50 -24 -90 -48 -90 -53 0 -5 6 -7 13 -5
113 42 212 63 120 25 -90 -36 -115 -48 -111 -53 3 -2 33 8 67 22 35 14 65 23
68 20 3 -2 -22 -19 -56 -35 -79 -40 -79 -57 0 -25 76 31 89 24 20 -10 -28 -15
-51 -31 -51 -37 0 -7 7 -8 18 -4 59 25 112 44 112 41 0 -2 -24 -18 -52 -35
-56 -32 -46 -42 15 -16 53 22 68 18 27 -6 -43 -26 -45 -28 -38 -34 3 -3 24 2
48 10 56 20 60 19 30 -6 l-25 -21 29 7 c19 4 32 2 37 -6 9 -15 188 -19 304 -7
78 8 71 -4 -19 -29 -157 -43 -478 -16 -500 43 -4 11 -1 11 19 -2 13 -9 30 -14
37 -12 8 3 3 10 -13 19 -59 31 -98 78 -118 137 -32 94 -73 468 -49 444 6 -6
29 -3 66 9 61 19 90 24 57 8z m2407 -506 c21 -19 22 -42 7 -112 -13 -60 -40
-93 -97 -114 -69 -27 -96 -23 -110 17 -11 30 -10 39 13 84 28 56 118 142 149
142 11 0 28 -7 38 -17z m-2507 -12 c33 -6 22 -8 -65 -14 -58 -3 -132 -13 -165
-22 -152 -40 -97 -84 180 -141 127 -26 106 -31 -40 -9 -162 25 -245 58 -245
100 0 45 57 70 186 84 104 11 103 11 149 2z m1543 -88 c-6 -7 -8 -22 -5 -34 3
-12 0 -22 -9 -26 -8 -3 -14 -11 -14 -17 0 -14 -45 -56 -60 -56 -14 0 -12 28 4
75 8 22 20 40 28 40 7 0 13 7 14 15 0 8 4 25 8 38 l7 22 19 -22 c13 -16 15
-27 8 -35z m-3076 -49 c-8 -47 -62 -55 -62 -9 0 17 7 25 23 28 33 6 42 2 39
-19z m1665 -70 c-3 -3 -12 -4 -19 -1 -8 3 -5 6 6 6 11 1 17 -2 13 -5z m3735
-156 c20 -19 74 -48 90 -48 21 -1 106 -94 127 -140 l19 -43 -31 -61 c-30 -57
-32 -68 -32 -161 1 -113 14 -165 77 -286 30 -60 37 -83 32 -105 -16 -67 -114
-180 -176 -204 -18 -8 -38 -17 -45 -22 -19 -15 -189 -23 -197 -9 -4 6 -15 11
-24 11 -18 0 -72 48 -72 64 0 5 -12 23 -27 38 -15 16 -41 53 -58 82 -16 29
-52 85 -78 124 -43 64 -48 78 -49 129 -2 128 29 322 62 375 11 18 20 38 20 44
0 10 55 78 95 117 11 11 51 39 89 63 57 36 77 44 117 44 26 0 54 -6 61 -12z
m-6868 -197 c39 -9 106 -65 106 -87 0 -23 -79 -9 -110 21 -16 15 -39 33 -52
39 -12 6 -24 20 -26 30 -4 20 -6 20 82 -3z m3343 -76 c89 -27 143 -89 143
-164 0 -28 2 -30 28 -25 22 5 43 -5 102 -44 172 -114 260 -260 215 -356 -26
-55 -61 -60 -161 -20 -90 35 -241 111 -262 131 -8 7 -19 10 -27 6 -31 -19
-215 -203 -215 -216 0 -8 15 -37 33 -63 40 -58 61 -98 121 -225 85 -183 123
-367 105 -513 -8 -63 -7 -81 3 -87 7 -5 48 -9 91 -9 l77 0 0 -70 0 -70 -113 0
c-75 0 -117 -4 -125 -12 -7 -7 -12 -33 -12 -60 l0 -47 113 -3 112 -3 0 -70 0
-70 -118 -3 -118 -3 3 -62 3 -62 133 -3 132 -3 0 -69 0 -70 -210 0 -210 0 0
149 c0 81 -3 176 -7 211 -5 55 -9 63 -32 71 -14 5 -35 26 -46 47 -30 55 -46
48 -71 -33 -12 -38 -49 -153 -81 -255 l-58 -185 -67 -3 -66 -3 -75 188 -76
188 -18 -45 c-10 -25 -43 -108 -73 -185 l-56 -140 -67 -3 c-37 -2 -67 -1 -67
2 0 3 -47 154 -105 336 -58 183 -105 334 -105 336 0 2 35 4 78 4 l78 0 64
-215 c35 -118 66 -215 70 -215 6 0 37 76 141 345 29 75 49 96 75 80 9 -6 54
-102 99 -213 45 -112 86 -204 90 -205 5 -1 36 95 69 213 60 210 62 215 89 218
27 3 32 14 27 57 -2 17 -32 69 -50 85 -3 3 -12 21 -22 41 -10 22 -31 44 -55
56 -21 12 -58 31 -82 44 -44 24 -122 114 -135 157 -4 12 -11 22 -15 22 -5 0
-19 25 -32 55 -23 53 -25 54 -57 49 -68 -13 -97 57 -42 98 l31 22 -7 121 c-4
66 -10 128 -15 137 -12 23 -11 95 1 103 6 3 8 16 4 29 -3 12 4 43 17 71 34 78
111 105 196 70 48 -20 56 -19 87 10 15 14 37 25 48 25 29 0 82 -38 103 -72 9
-16 32 -45 51 -66 20 -20 47 -54 61 -74 14 -21 29 -38 33 -38 14 0 107 80 134
114 33 44 33 59 -1 74 -16 6 -53 25 -83 41 -30 16 -77 35 -105 41 -68 15 -173
67 -212 103 -54 50 -44 57 50 36 148 -34 200 -40 342 -37 126 3 140 5 143 21
8 42 -7 65 -55 84 -40 15 -76 18 -223 17 -162 0 -189 -3 -355 -38 -277 -57
-502 -127 -765 -238 -117 -49 -419 -203 -455 -232 -25 -20 -26 -24 -16 -63 30
-109 4 -362 -47 -475 -15 -32 -30 -58 -33 -58 -15 0 -17 29 -4 54 17 31 11 32
-33 6 -37 -23 -74 -26 -70 -7 2 7 -6 24 -17 38 -17 21 -27 25 -58 21 -43 -5
-47 7 -22 79 9 24 13 49 11 55 -5 13 36 155 54 187 7 11 7 17 0 17 -23 0 -568
-353 -632 -409 -21 -18 -38 -40 -38 -48 0 -9 -6 -12 -19 -8 -38 12 -562 -385
-965 -731 -172 -147 -477 -443 -612 -592 -325 -359 -501 -654 -534 -893 -32
-229 55 -435 217 -518 104 -53 266 -65 490 -36 322 41 567 134 1053 400 460
252 840 421 1180 525 62 19 135 50 178 76 209 127 398 150 489 59 22 -22 33
-42 33 -63 0 -62 67 -107 178 -118 54 -6 58 -5 85 25 31 35 54 38 99 15 36
-19 72 -16 173 15 54 16 98 41 190 106 167 120 372 250 485 307 82 42 102 48
145 46 44 -3 51 -6 59 -30 14 -40 -9 -84 -89 -164 -159 -161 -373 -274 -625
-330 -92 -20 -217 -102 -237 -154 -16 -42 -6 -44 120 -37 122 7 275 34 457 81
219 57 234 63 272 121 39 59 58 64 127 34 l51 -21 91 31 c66 23 115 49 182 98
153 111 386 261 488 313 142 73 202 81 229 30 36 -68 -185 -282 -408 -394 -68
-35 -210 -82 -303 -101 -124 -26 -272 -140 -242 -188 11 -17 219 0 368 32 181
38 501 126 688 190 122 42 165 63 250 119 203 135 251 152 437 152 89 0 135
-14 176 -55 14 -14 29 -23 34 -20 4 2 13 -2 20 -10 10 -12 8 -25 -13 -69 -30
-63 -33 -65 -89 -71 -33 -3 -49 -11 -69 -36 -23 -28 -29 -31 -60 -25 -44 10
-83 10 -138 3 -43 -6 -61 -19 -61 -45 0 -17 -58 -71 -87 -83 -13 -5 -23 -17
-23 -29 0 -26 20 -26 192 0 242 36 389 69 723 161 138 39 211 65 310 114 145
71 246 107 366 130 103 19 149 19 198 -1 45 -18 66 -59 51 -98 -14 -39 -81
-85 -155 -108 -87 -27 -261 -29 -339 -5 l-50 16 -60 -32 c-33 -18 -80 -51
-104 -74 -55 -52 -54 -79 3 -108 128 -64 682 23 1219 191 60 19 120 34 132 34
30 0 50 -35 36 -64 -22 -49 -658 -213 -1017 -262 -326 -44 -508 8 -508 147 0
33 -3 40 -16 36 -100 -29 -412 -111 -490 -128 -65 -15 -101 -28 -101 -36 0 -7
6 -13 12 -13 32 0 -41 -34 -100 -46 -172 -36 -172 -37 -202 -71 l-29 -33 -36
17 c-30 15 -40 15 -71 4 -50 -18 -64 -3 -39 44 12 22 16 38 10 43 -6 5 -44 14
-85 21 -124 20 -200 78 -200 152 0 22 -4 39 -10 39 -5 0 -78 -22 -162 -49
-385 -125 -663 -178 -873 -168 l-110 5 -40 -51 c-89 -112 -334 -309 -610 -491
-238 -157 -508 -316 -538 -316 -22 0 -47 38 -39 60 8 21 423 366 812 676 143
114 260 212 260 218 -1 39 -15 39 -156 1 -280 -76 -403 -97 -584 -100 l-165
-2 -80 -83 c-130 -134 -273 -250 -510 -412 -218 -150 -569 -358 -603 -358 -21
0 -42 26 -42 54 0 19 381 337 870 725 113 90 205 166 204 170 0 3 -6 27 -14
53 l-14 47 -55 7 c-60 7 -124 31 -170 63 l-27 20 -63 -40 c-211 -133 -533
-243 -653 -223 -74 12 -99 81 -53 148 13 20 21 36 17 36 -18 0 -247 -86 -385
-144 -205 -87 -398 -181 -667 -327 -511 -277 -719 -359 -1045 -415 -145 -24
-367 -29 -448 -10 -211 50 -354 200 -392 411 -35 197 -5 362 105 580 254 506
944 1183 1940 1904 62 46 122 94 133 107 10 13 22 22 27 19 5 -3 95 53 202
123 106 71 270 178 363 237 202 128 212 135 190 147 -17 10 -21 48 -5 48 6 0
10 7 10 15 0 8 6 15 14 15 24 0 30 56 9 84 -10 14 -24 26 -30 26 -7 0 -13 4
-13 9 0 5 -3 16 -6 25 -5 13 1 16 30 16 20 0 36 5 36 10 0 6 -9 10 -21 10 -15
0 -19 5 -15 18 4 11 -4 32 -19 52 -24 33 -34 90 -16 90 23 0 103 -161 120
-240 7 -30 17 -71 23 -92 l11 -36 171 88 c433 224 849 362 1256 415 132 18
354 13 427 -10z m3931 13 c15 -15 15 -45 0 -54 -13 -8 -38 22 -38 48 0 21 20
24 38 6z m-7397 -64 c10 -13 10 -17 -1 -24 -18 -11 -50 6 -50 25 0 20 34 19
51 -1z m363 -95 c23 -21 73 -54 112 -75 92 -50 138 -95 129 -125 -6 -19 -9
-20 -19 -8 -6 8 -27 21 -46 28 -19 8 -42 21 -50 30 -30 31 -110 80 -147 90
-47 13 -123 97 -123 135 l0 25 51 -32 c28 -17 70 -48 93 -68z m-251 46 c20
-14 37 -31 37 -37 0 -20 -62 1 -93 32 l-31 30 25 0 c13 0 41 -11 62 -25z
m7797 -71 c0 -16 -16 -19 -25 -4 -8 13 4 32 16 25 5 -4 9 -13 9 -21z m-7649
-83 c35 -47 112 -100 157 -107 23 -4 45 -11 48 -16 3 -5 -8 -24 -25 -43 -37
-42 -47 -80 -61 -215 -11 -103 -35 -210 -47 -210 -3 0 -12 8 -20 18 -14 18
-133 260 -133 271 0 4 -11 22 -25 41 -14 19 -25 42 -25 53 0 21 -26 71 -53
104 -30 34 7 101 58 105 14 1 31 8 37 15 19 24 66 15 89 -16z m7599 -17 c0
-17 -22 -14 -28 4 -2 7 3 12 12 12 9 0 16 -7 16 -16z m-7100 -195 c0 -19 -5
-29 -15 -29 -8 0 -24 -9 -35 -20 -11 -11 -30 -20 -42 -20 -21 1 -22 2 -5 14 9
7 17 20 17 27 0 23 48 69 65 63 9 -4 15 -19 15 -35z m20 -70 c0 -11 -4 -17
-10 -14 -5 3 -10 13 -10 21 0 8 5 14 10 14 6 0 10 -9 10 -21z m-5 -74 c19 -6
19 -7 -5 -25 -30 -23 -44 -25 -59 -6 -17 20 6 57 28 46 9 -5 25 -11 36 -15z
m4276 -24 c27 -28 38 -49 44 -87 10 -68 16 -77 116 -179 106 -108 135 -162
125 -238 -6 -43 -39 -127 -50 -127 -3 0 -11 -2 -18 -5 -10 -4 -27 14 -51 54
-20 32 -37 64 -37 71 0 30 -123 248 -149 265 -6 3 -20 24 -31 46 -12 22 -43
64 -70 94 -62 69 -67 105 -17 135 46 29 92 19 138 -29z m-4450 16 c-10 -9 -11
-8 -5 6 3 10 9 15 12 12 3 -3 0 -11 -7 -18z m319 -13 c0 -8 -4 -12 -10 -9 -5
3 -10 10 -10 16 0 5 5 9 10 9 6 0 10 -7 10 -16z m-20 -23 c0 -6 -4 -13 -10
-16 -5 -3 -10 1 -10 9 0 9 5 16 10 16 6 0 10 -4 10 -9z m-130 -81 c0 -5 -5
-10 -11 -10 -5 0 -7 5 -4 10 3 6 8 10 11 10 2 0 4 -4 4 -10z m94 -125 c7 -20
-3 -45 -19 -45 -19 0 -25 13 -18 38 6 25 28 29 37 7z m-204 -39 c0 -3 -4 -8
-10 -11 -5 -3 -10 -1 -10 4 0 6 5 11 10 11 6 0 10 -2 10 -4z m7142 -237 c28
-34 37 -82 18 -94 -6 -4 -8 -11 -5 -16 4 -5 1 -9 -4 -9 -6 0 -23 -18 -37 -40
-19 -29 -30 -37 -39 -30 -6 5 -15 7 -19 3 -3 -4 -15 -7 -26 -8 -14 -1 -20 5
-20 19 0 12 -7 46 -15 76 -8 30 -11 57 -6 60 5 3 11 14 15 25 8 26 54 53 85
50 14 -2 37 -18 53 -36z m-6272 -49 c0 -11 -4 -20 -9 -20 -5 0 -7 9 -4 20 3
11 7 20 9 20 2 0 4 -9 4 -20z m-42 -7 c-4 -23 -48 -31 -48 -10 0 9 6 18 13 20
25 11 38 7 35 -10z m-408 -238 c-12 -15 -40 -21 -40 -8 0 3 8 15 17 25 21 23
43 7 23 -17z m338 -17 c-29 -37 -75 -74 -83 -66 -11 11 30 67 60 82 45 22 50
19 23 -16z m4955 -139 c73 -20 146 -110 147 -181 0 -28 0 -28 -70 -28 -67 0
-71 1 -81 27 -18 49 -76 71 -138 53 -38 -11 -51 -24 -51 -56 0 -33 28 -51 129
-79 147 -41 185 -65 216 -138 30 -73 10 -173 -46 -224 -46 -42 -118 -66 -199
-67 -95 -1 -157 22 -205 75 -42 46 -55 77 -55 125 l0 34 75 0 c62 0 75 -3 75
-16 0 -8 13 -29 29 -45 25 -24 37 -29 80 -29 42 0 56 5 82 28 26 23 31 33 25
55 -8 34 -41 50 -150 78 -150 38 -206 91 -206 198 0 90 44 155 125 185 47 17
165 20 218 5z m-5406 -26 c53 -29 84 -73 90 -128 6 -52 -9 -101 -41 -136 l-25
-27 26 -23 c85 -79 81 -206 -11 -287 -50 -44 -91 -52 -268 -52 l-158 0 0 341
0 341 173 -4 c155 -3 176 -5 214 -25z m638 -43 l0 -65 -127 -3 -128 -3 0 -64
0 -65 115 0 116 0 -3 -67 -3 -68 -112 -3 -113 -3 0 -64 0 -64 133 -3 132 -3 0
-65 0 -65 -207 -3 -208 -2 0 340 0 340 203 -2 202 -3 0 -65z m603 3 l-3 -68
-92 -3 -93 -3 0 -269 0 -270 -75 0 -75 0 0 270 0 269 -92 3 -93 3 -3 68 -3 67
266 0 266 0 -3 -67z m2052 -3 l0 -70 -130 0 -131 0 3 -62 3 -63 118 -3 118 -3
-3 -67 -3 -67 -118 -3 -118 -3 3 -62 3 -62 133 -3 132 -3 0 -69 0 -70 -207 2
-208 3 -3 325 c-1 179 0 330 3 337 3 10 53 13 205 13 l200 0 0 -70z m412 -127
l143 -198 5 195 5 195 73 3 72 3 0 -341 0 -340 -63 0 -63 0 -71 98 c-38 53
-105 147 -149 207 l-79 110 -3 -207 -2 -208 -69 0 -68 0 -7 92 c-8 116 -8 297
1 461 l6 127 63 0 63 0 143 -197z m828 -43 c4 -179 8 -240 19 -256 36 -54 120
-70 179 -34 56 35 62 63 62 310 l0 220 75 0 75 0 0 -238 c0 -188 -3 -248 -15
-283 -37 -107 -135 -173 -259 -172 -118 1 -203 45 -254 132 l-27 46 -3 258 -3
258 73 -3 73 -3 5 -235z m2329 -256 c38 -22 51 -47 58 -105 4 -34 12 -53 24
-60 11 -5 19 -18 19 -28 0 -11 7 -21 15 -25 16 -6 22 -86 6 -86 -5 0 -11 -12
-14 -27 -3 -16 -17 -45 -31 -66 -14 -21 -26 -45 -26 -53 0 -8 -7 -17 -15 -20
-8 -4 -15 -11 -15 -17 0 -20 -33 -47 -58 -47 -16 0 -41 18 -79 58 -68 71 -85
103 -77 139 11 45 33 62 95 74 32 6 64 17 70 25 11 14 4 54 -11 54 -17 0 -51
70 -59 120 -6 40 -5 55 6 66 19 19 58 18 92 -2z m-2810 -1333 c23 -23 34 -71
29 -122 -4 -45 -26 -44 -42 2 -7 21 -23 49 -34 64 -22 28 -28 56 -15 68 12 13
43 7 62 -12z m1037 -7 c28 -17 37 -63 18 -91 -21 -34 -17 -57 14 -71 24 -11
29 -10 45 9 9 12 17 27 17 35 0 19 45 18 64 -2 14 -14 21 -40 18 -69 -4 -36
-26 -105 -44 -133 -24 -39 -108 -97 -197 -136 -58 -26 -78 -29 -191 -32 -70
-2 -139 -8 -154 -14 -15 -5 -55 -10 -90 -10 -54 0 -75 6 -152 44 -71 35 -108
62 -183 134 -104 100 -102 92 -36 169 42 49 79 68 150 78 27 4 65 13 85 20 42
17 272 39 301 30 12 -4 40 0 62 8 23 8 64 18 90 22 26 3 62 13 80 20 34 15 68
11 103 -11z m402 -411 c51 -38 74 -83 69 -136 -12 -133 -171 -195 -272 -106
-83 73 -61 210 40 255 42 20 129 13 163 -13z m330 2 c59 -35 69 -105 23 -157
l-28 -32 28 -39 c16 -22 29 -44 29 -49 0 -4 -16 -8 -35 -8 -29 0 -38 6 -65 46
-26 37 -36 45 -58 42 -23 -3 -28 -9 -32 -43 -5 -37 -7 -40 -35 -40 l-30 0 -3
140 c-1 76 -1 144 1 150 7 18 171 10 205 -10z m331 -122 c34 -76 61 -144 61
-150 0 -8 -13 -13 -30 -13 -25 0 -33 6 -47 35 -17 35 -17 35 -83 35 -66 0 -66
0 -83 -35 -14 -29 -22 -35 -47 -35 -17 0 -30 5 -30 13 0 6 28 74 62 150 l61
137 37 0 37 0 62 -137z m228 55 l68 -82 3 82 3 82 34 0 35 0 0 -151 0 -150
-27 3 c-20 2 -46 25 -98 87 l-70 84 -5 -84 -5 -84 -32 -3 -33 -3 0 150 0 151
30 0 c25 0 40 -13 97 -82z m-7759 -391 c12 -11 30 -46 39 -76 19 -64 44 -101
113 -170 60 -60 66 -89 51 -216 -11 -81 -10 -98 3 -124 22 -42 20 -107 -5
-158 -22 -46 -30 -51 -49 -29 -20 25 -19 88 2 151 18 54 19 66 7 115 -16 71
-23 80 -100 138 -75 57 -128 119 -156 182 -11 25 -29 54 -39 65 -11 11 -25 32
-31 47 -11 24 -9 31 14 59 15 17 36 35 47 39 29 12 77 2 104 -23z m4470 -421
c83 -52 127 -125 162 -266 22 -87 37 -127 56 -150 16 -19 63 -224 71 -308 7
-74 -11 -164 -38 -188 -17 -15 -20 -15 -43 -1 -19 13 -26 29 -31 64 -3 27 -12
90 -20 141 -8 51 -15 125 -15 163 0 39 -5 79 -10 89 -10 18 -14 17 -71 -20
-68 -44 -157 -74 -193 -64 -13 3 -33 19 -45 35 -12 16 -38 38 -59 48 -54 28
-73 56 -79 115 -6 56 14 112 43 123 8 3 27 15 41 27 82 68 104 91 110 115 8
34 33 84 47 93 18 13 35 9 74 -16z m-1748 -2631 c0 -8 -4 -15 -9 -15 -13 0
-22 16 -14 24 11 11 23 6 23 -9z m624 -104 c3 -5 -2 -11 -12 -13 -11 -3 -19 0
-19 8 0 16 23 19 31 5z m-254 -80 c0 -12 -20 -25 -27 -18 -7 7 6 27 18 27 5 0
9 -4 9 -9z m200 -1 c0 -5 -4 -10 -10 -10 -5 0 -10 5 -10 10 0 6 5 10 10 10 6
0 10 -4 10 -10z"/>
<path d="M5616 8414 c-18 -46 17 -61 55 -23 24 24 24 24 -18 32 -23 5 -33 2
-37 -9z"/>
<path d="M5127 4935 c-107 -61 -317 -198 -317 -207 0 -23 193 75 286 146 54
40 124 106 113 106 -2 0 -39 -20 -82 -45z"/>
<path d="M6190 4934 c-76 -43 -320 -201 -320 -208 0 -8 72 20 145 57 91 45
278 186 250 186 -5 1 -39 -15 -75 -35z"/>
<path d="M8467 4750 c-38 -10 -71 -21 -75 -25 -16 -17 165 3 209 23 l44 20
-55 1 c-30 0 -86 -8 -123 -19z"/>
<path d="M3665 4721 c-76 -22 -202 -88 -280 -146 -69 -52 -165 -143 -165 -157
0 -20 165 17 285 64 156 60 335 161 357 201 9 17 7 24 -12 39 -28 23 -103 23
-185 -1z"/>
<path d="M4266 4501 c-7 -10 3 -41 13 -41 3 0 20 11 36 25 l30 24 -37 1 c-20
0 -39 -4 -42 -9z"/>
<path d="M4150 4238 c-108 -82 -390 -310 -390 -315 0 -20 374 269 434 336 28
31 18 26 -44 -21z"/>
<path d="M5220 4242 c-115 -88 -370 -294 -376 -304 -19 -30 274 191 370 280
54 50 57 64 6 24z"/>
<path d="M2422 5903 l3 -68 71 -3 c56 -2 75 1 92 15 32 27 37 64 12 96 -20 25
-26 27 -101 27 l-80 0 3 -67z"/>
<path d="M2427 5703 c-4 -3 -7 -37 -7 -75 l0 -68 84 0 c79 0 86 2 105 26 36
46 23 94 -30 113 -35 12 -142 15 -152 4z"/>
<path d="M8018 3805 c-35 -20 -52 -71 -37 -113 24 -69 122 -81 159 -19 11 18
20 40 20 49 0 31 -23 69 -51 84 -35 17 -57 17 -91 -1z"/>
<path d="M8354 3811 c-10 -10 -3 -89 9 -93 27 -11 88 5 98 24 20 37 -3 65 -56
70 -26 2 -48 1 -51 -1z"/>
<path d="M8696 3747 c-9 -23 -16 -46 -16 -50 0 -4 18 -7 40 -7 22 0 40 3 40 7
0 16 -33 93 -40 93 -4 0 -15 -19 -24 -43z"/>
<path d="M2858 9760 c-53 -27 -99 -54 -103 -60 -3 -5 2 -26 11 -47 11 -22 18
-57 17 -88 -1 -49 0 -52 21 -48 26 5 46 49 39 85 -4 20 5 33 40 64 24 21 50
50 57 63 17 32 30 81 22 80 -4 0 -51 -22 -104 -49z"/>
<path d="M4736 35 c-19 -15 -19 -15 2 -15 13 0 22 6 22 15 0 18 0 18 -24 0z"/>
</g>
</svg>
